HIERARCHY
ROOT joint_Root
{
	OFFSET 0.0 0.0 0.0
	CHANNELS 6 Xposition Yposition Zposition Zrotation Xrotation Yrotation 
	JOINT Hips
	{
		OFFSET -17.1583 93.1646 452.98
		CHANNELS 6 Xposition Yposition Zposition Zrotation Xrotation Yrotation 
		JOINT Spine
		{
			OFFSET 15.7357 0.0 0.0
			CHANNELS 6 Xposition Yposition Zposition Zrotation Xrotation Yrotation 
			JOINT Chest
			{
				OFFSET 8.98455 -0.406207 0.0
				CHANNELS 6 Xposition Yposition Zposition Zrotation Xrotation Yrotation 
				JOINT Neck
				{
					OFFSET 16.3773 0.0 0.0
					CHANNELS 6 Xposition Yposition Zposition Zrotation Xrotation Yrotation 
					JOINT Head
					{
						OFFSET 6.45672 0.0 0.0
						CHANNELS 6 Xposition Yposition Zposition Zrotation Xrotation Yrotation 
						End Site
						{
							OFFSET 0.0 0.0 0.0
						}
					}
				}
				JOINT Shoulder_L
				{
					OFFSET 12.9942 -0.242716 4.98039
					CHANNELS 6 Xposition Yposition Zposition Zrotation Xrotation Yrotation 
					JOINT UpperArm_L
					{
						OFFSET 5.34809 0.0 0.0
						CHANNELS 6 Xposition Yposition Zposition Zrotation Xrotation Yrotation 
						JOINT LowerArm_L
						{
							OFFSET 24.3286 1.87007e-05 0.0
							CHANNELS 6 Xposition Yposition Zposition Zrotation Xrotation Yrotation 
							JOINT Hand_L
							{
								OFFSET 22.2916 0.0 0.0
								CHANNELS 6 Xposition Yposition Zposition Zrotation Xrotation Yrotation 
								End Site
								{
									OFFSET 0.0 0.0 0.0
								}
							}
						}
					}
				}
				JOINT Shoulder_R
				{
					OFFSET 12.9945 -0.242716 -4.98039
					CHANNELS 6 Xposition Yposition Zposition Zrotation Xrotation Yrotation 
					JOINT UpperArm_R
					{
						OFFSET -5.34813 0.0 0.0
						CHANNELS 6 Xposition Yposition Zposition Zrotation Xrotation Yrotation 
						JOINT LowerArm_R
						{
							OFFSET -24.3289 0.000322201 0.0
							CHANNELS 6 Xposition Yposition Zposition Zrotation Xrotation Yrotation 
							JOINT Hand_R
							{
								OFFSET -22.2915 -0.000108084 0.0
								CHANNELS 6 Xposition Yposition Zposition Zrotation Xrotation Yrotation 
								End Site
								{
									OFFSET 0.0 0.0 0.0
								}
							}
						}
					}
				}
			}
		}
		JOINT UpperLeg_L
		{
			OFFSET -2.19248 -6.46944 0.0
			CHANNELS 6 Xposition Yposition Zposition Zrotation Xrotation Yrotation 
			JOINT LowerLeg_L
			{
				OFFSET 39.0811 0.0 -1.23785e-05
				CHANNELS 6 Xposition Yposition Zposition Zrotation Xrotation Yrotation 
				JOINT Foot_L
				{
					OFFSET 40.9854 0.0 -1.26872e-05
					CHANNELS 6 Xposition Yposition Zposition Zrotation Xrotation Yrotation 
					JOINT Toes_L
					{
						OFFSET 11.7543 0.0 0.0
						CHANNELS 6 Xposition Yposition Zposition Zrotation Xrotation Yrotation 
						End Site
						{
							OFFSET 0.0 0.0 0.0
						}
					}
				}
			}
		}
		JOINT UpperLeg_R
		{
			OFFSET -2.19251 6.46944 0.0
			CHANNELS 6 Xposition Yposition Zposition Zrotation Xrotation Yrotation 
			JOINT LowerLeg_R
			{
				OFFSET -39.0811 -0.00228153 -0.0401928
				CHANNELS 6 Xposition Yposition Zposition Zrotation Xrotation Yrotation 
				JOINT Foot_R
				{
					OFFSET -40.9854 0.0 0.0
					CHANNELS 6 Xposition Yposition Zposition Zrotation Xrotation Yrotation 
					JOINT Toes_R
					{
						OFFSET -11.7543 0.0 0.0
						CHANNELS 6 Xposition Yposition Zposition Zrotation Xrotation Yrotation 
						End Site
						{
							OFFSET 0.0 0.0 0.0
						}
					}
				}
			}
		}
	}
}
MOTION
Frames:	4
Frame Time:	0.0333333
0.000000 0.000000 0.000000 0.000000 0.000000 -0.000000 -1.522600 93.276500 1.239740 87.637200 -0.532485 -1.164780 15.735700 0.000005 -0.000001 52.040700 87.452300 -48.171400 8.984550 -0.406207 -0.000000 -3.621280 -3.516460 7.632180 16.377300 -0.000001 -0.000001 2.116370 4.669990 -4.921700 6.456720 -0.000001 -0.000000 0.975406 6.570560 -11.088800 12.994200 -0.242716 4.980390 -93.129200 10.064800 -72.629100 5.348090 -0.000007 -0.000001 -71.948200 19.813600 4.768200 24.328600 0.000019 0.000005 12.459100 25.684600 -27.011300 22.291600 -0.000001 0.000005 -5.199100 5.190830 2.947650 12.994500 -0.242716 -4.980390 88.586700 4.221370 -71.470200 -5.348130 -0.000001 -0.000004 -63.429200 7.782630 -5.797080 -24.328900 0.000322 -0.000009 -0.254030 -1.406590 -10.222900 -22.291500 -0.000108 -0.000004 -12.175000 5.202340 2.664240 -2.192480 -6.469440 -0.000000 -171.624000 -8.567880 0.090135 39.081100 -0.000007 -0.000012 0.013884 -0.068006 11.539200 40.985400 -0.000006 -0.000013 -3.809800 16.292300 -67.544300 11.754300 -0.000000 0.000003 -0.000592 0.177055 -9.394970 -2.192510 6.469440 -0.000001 177.451000 8.897530 -177.543000 -39.081100 -0.002282 -0.040193 -0.000095 0.029160 6.727390 -40.985400 0.000008 0.000006 -9.815150 9.433360 -63.690200 -11.754300 -0.000006 -0.000006 -0.008957 0.263339 -5.876700
0.000000 0.000000 0.000000 0.000000 0.000000 -0.000000 -1.452000 93.410000 1.329540 87.714000 -0.300173 -2.096350 15.735700 0.000005 -0.000001 46.533400 87.766700 -43.055500 8.984550 -0.406207 -0.000000 -4.414340 -3.439510 6.829380 16.377300 -0.000001 -0.000001 1.519250 4.620020 -5.256860 6.456720 -0.000001 -0.000000 0.577832 6.485480 -11.497300 12.994200 -0.242716 4.980390 -93.064600 9.848540 -72.619300 5.348090 -0.000007 -0.000001 -69.795900 17.229100 4.229130 24.328600 0.000019 0.000005 11.931700 26.109900 -25.648000 22.291600 -0.000001 0.000005 -4.957530 5.173730 3.367290 12.994500 -0.242716 -4.980390 88.813700 3.473410 -71.129500 -5.348130 -0.000001 -0.000004 -60.986700 -1.094530 -5.847450 -24.328900 0.000322 -0.000009 -0.365256 -3.320570 -6.296630 -22.291500 -0.000108 -0.000004 -11.687000 5.171200 3.429210 -2.192480 -6.469440 -0.000000 -171.531000 -9.183390 -0.137432 39.081100 -0.000007 -0.000012 -0.003127 0.017899 9.908760 40.985400 -0.000006 -0.000013 -6.473770 17.465200 -65.366300 11.754300 -0.000000 0.000003 -0.000348 0.173291 -9.547890 -2.192510 6.469440 -0.000001 177.389000 9.242700 -177.772000 -39.081100 -0.002282 -0.040193 0.003285 0.000666 5.332310 -40.985400 0.000008 0.000006 -10.530600 9.534180 -62.447700 -11.754300 -0.000006 -0.000006 -0.008429 0.259163 -6.047330
0.000000 0.000000 0.000000 0.000000 0.000000 -0.000000 -1.427660 93.612800 1.385040 87.761800 -0.076587 -3.046350 15.735700 0.000005 -0.000001 41.320100 88.152400 -38.441500 8.984550 -0.406207 -0.000000 -5.245900 -3.098550 5.621660 16.377300 -0.000001 -0.000001 0.641736 4.416750 -5.346270 6.456720 -0.000001 -0.000000 0.351522 6.099780 -11.653100 12.994200 -0.242716 4.980390 -92.953700 9.441580 -72.539600 5.348090 -0.000007 -0.000001 -67.448600 14.317500 3.755680 24.328600 0.000019 0.000005 11.899300 26.820000 -25.034000 22.291600 -0.000001 0.000005 -3.611560 5.117590 4.698650 12.994500 -0.242716 -4.980390 89.035200 2.776460 -70.828400 -5.348130 -0.000001 -0.000004 -56.712100 -7.753050 -5.583000 -24.328900 0.000322 -0.000009 -0.224833 -5.686780 -2.262430 -22.291500 -0.000108 -0.000004 -9.755080 5.156810 3.775520 -2.192480 -6.469440 -0.000000 -171.326000 -9.422930 0.792214 39.081100 -0.000007 -0.000012 -0.002315 0.022704 5.820600 40.985400 -0.000006 -0.000013 -10.629400 18.089000 -61.305600 11.754300 -0.000000 0.000003 0.000352 0.161481 -10.027500 -2.192510 6.469440 -0.000001 177.400000 10.325600 -178.387000 -39.081100 -0.002282 -0.040193 0.005174 -0.022735 4.592350 -40.985400 0.000008 0.000006 -10.905800 10.287300 -61.237900 -11.754300 -0.000006 -0.000006 -0.007798 0.254041 -6.256530
0.000000 0.000000 0.000000 0.000000 0.000000 -0.000000 -1.463660 93.844300 1.429890 87.587000 0.116857 -3.937510 15.735700 0.000005 -0.000001 35.143000 88.523300 -32.930800 8.984550 -0.406207 -0.000000 -6.013960 -2.677230 4.289810 16.377300 -0.000001 -0.000001 -0.280264 4.242080 -5.528730 6.456720 -0.000001 -0.000000 0.074904 5.567250 -11.536500 12.994200 -0.242716 4.980390 -92.836700 9.002850 -72.429700 5.348090 -0.000007 -0.000001 -64.974400 11.273100 3.533560 24.328600 0.000019 0.000005 11.451300 26.211900 -24.636800 22.291600 -0.000001 0.000005 -1.343400 5.076960 5.631190 12.994500 -0.242716 -4.980390 89.324200 1.922320 -70.626200 -5.348130 -0.000001 -0.000004 -51.522800 -16.030500 -4.641300 -24.328900 0.000322 -0.000009 -0.000504 -7.061160 -0.000043 -22.291500 -0.000108 -0.000004 -6.455460 5.111380 4.832840 -2.192480 -6.469440 -0.000000 -171.076000 -9.513300 1.859260 39.081100 -0.000007 -0.000012 0.003134 -0.108066 1.661440 40.985400 -0.000006 -0.000013 -13.040200 18.089200 -57.790600 11.754300 -0.000000 0.000003 0.000659 0.155685 -10.262800 -2.192510 6.469440 -0.000001 177.715000 11.426500 -179.174000 -39.081100 -0.002282 -0.040193 0.006666 -0.045532 4.167570 -40.985400 0.000008 0.000006 -11.228300 11.064300 -59.799700 -11.754300 -0.000006 -0.000006 -0.006559 0.243500 -6.686780
